<?xml version="1.0" encoding="UTF-8"?>
<svg version="1.1" xmlns="http://www.w3.org/2000/svg" width="2468" height="1796">
<path d="M0 0 C814.44 0 1628.88 0 2468 0 C2468 592.68 2468 1185.36 2468 1796 C1653.56 1796 839.12 1796 0 1796 C0 1203.32 0 610.64 0 0 Z " fill="#FEFEFE" transform="translate(0,0)"/>
<path d="M0 0 C319.77 0 639.54 0 969 0 C969 78.21 969 156.42 969 237 C967 239 967 239 964.20678934 239.24934233 C963.00043519 239.24903037 961.79408104 239.24871841 960.55117071 239.24839699 C959.54006962 239.25223125 959.54006962 239.25223125 958.50854224 239.25614297 C956.22290416 239.26232616 953.93753633 239.25410836 951.65190697 239.24609566 C950.00042614 239.24757347 948.34894591 239.24992907 946.69746745 239.25308865 C942.1213649 239.2592627 937.54535035 239.25284686 932.96925431 239.24453239 C928.00523606 239.23769459 923.04122721 239.24239971 918.07720721 239.24568737 C909.36464989 239.24984576 900.65211982 239.24652877 891.93956566 239.23841095 C878.9841865 239.22637334 866.02882462 239.22573631 853.07344089 239.22749493 C831.28364959 239.23012689 809.49387025 239.22343866 787.70408249 239.21146011 C766.11946938 239.19962267 744.53486124 239.19191144 722.9502449 239.18975449 C722.28036946 239.18968566 721.61049402 239.18961684 720.92031933 239.18954593 C714.80220592 239.18891955 708.68409251 239.18834416 702.5659791 239.18782998 C687.355772 239.18655105 672.14556502 239.18463231 656.93535805 239.18227959 C656.2426528 239.18217295 655.54994755 239.18206632 654.83625124 239.18195645 C621.12488176 239.17671106 587.41351557 239.16409498 553.70214844 239.15087891 C542.00083417 239.14629566 530.2995199 239.14174497 518.59820557 239.1373291 C517.87250723 239.1370552 517.1468089 239.1367813 516.3991197 239.13649911 C482.6749372 239.1238153 448.95075414 239.11636117 415.22656988 239.11025951 C413.0376699 239.10986338 410.84876992 239.109465 408.65986994 239.10906615 C394.15414146 239.10642663 379.64841298 239.10387733 365.14268448 239.10138843 C336.27889823 239.09643519 307.41511209 239.09095182 278.55132601 239.08510434 C277.17669962 239.08482586 275.80207322 239.08454775 274.42744683 239.08427001 C232.07934647 239.07571166 189.73124728 239.06475964 147.38314819 239.05130005 C145.60837289 239.05073738 145.60837289 239.05073738 143.79774353 239.05016333 C95.86516184 239.03493025 47.93258103 239.01714412 0 239 C0 160.13 0 81.26 0 0 Z " fill="#000000" transform="translate(775,372)"/>
<path d="M0 0 C112.56575664 -0.02013078 112.56575664 -0.02013078 147.38314819 -0.02565002 C149.2457686 -0.02594602 149.2457686 -0.02594602 151.1460177 -0.02624801 C192.92657882 -0.03286974 234.70713999 -0.03812235 276.48770142 -0.04234314 C277.86440858 -0.04248259 279.24111574 -0.04262204 280.6178229 -0.04276149 C309.51337727 -0.04568399 338.40893166 -0.04840073 367.30448607 -0.05087968 C381.8190377 -0.0521251 396.33358934 -0.05341008 410.84814096 -0.05473244 C413.03764696 -0.05493169 415.22715297 -0.05512981 417.41665897 -0.05532788 C451.14384144 -0.05838894 484.87102355 -0.06229977 518.59820557 -0.06866455 C519.32372331 -0.06880145 520.04924105 -0.06893835 520.79674418 -0.0690794 C532.49471522 -0.07129185 544.19268625 -0.07357543 555.89065727 -0.07586844 C589.5722241 -0.08246955 623.25379064 -0.08854733 656.93535805 -0.09113979 C657.9736592 -0.0912201 657.9736592 -0.0912201 659.03293614 -0.09130202 C674.22608571 -0.09246761 689.41923528 -0.09336255 704.61238487 -0.09400098 C710.72500488 -0.09426262 716.83762489 -0.09456323 722.9502449 -0.09487724 C723.95376287 -0.09492738 723.95376287 -0.09492738 724.97755393 -0.09497854 C746.55599876 -0.09607612 768.13444154 -0.10035103 789.71288554 -0.10628221 C812.04165262 -0.11240475 834.37041744 -0.11501687 856.69918536 -0.11350138 C869.58512056 -0.11273789 882.47104832 -0.11479439 895.35698218 -0.12079754 C903.94893686 -0.12452861 912.54088662 -0.12467703 921.13284162 -0.12183181 C926.03853893 -0.12031225 930.9442221 -0.12042652 935.84991793 -0.12488318 C940.3035941 -0.12889876 944.75724492 -0.12840033 949.21092065 -0.12413998 C950.82089227 -0.12341964 952.43086571 -0.12441322 954.04083502 -0.12723524 C956.21097864 -0.13080107 958.38103015 -0.12831326 960.55117071 -0.1241985 C961.75752485 -0.12435448 962.963879 -0.12451046 964.20678934 -0.12467116 C967 0 967 0 969 1 C969 79.21 969 157.42 969 238 C649.23 238 329.46 238 0 238 C0 159.46 0 80.92 0 0 Z " fill="#000000" transform="translate(775,1102)"/>
<path d="M0 0 C152.64344992 -0.02014604 152.64344992 -0.02014604 194.84643642 -0.02508167 C197.30766196 -0.0253696 199.76888749 -0.02565757 202.23011302 -0.02594624 C259.6973183 -0.03268586 317.16452361 -0.03805826 374.63172913 -0.04234314 C376.49699996 -0.04248259 378.36227079 -0.04262204 380.22754162 -0.04276149 C419.37712731 -0.04568396 458.526713 -0.0484007 497.67629872 -0.05087968 C517.34143368 -0.05212511 537.00656865 -0.05341008 556.67170361 -0.05473244 C559.63817822 -0.05493169 562.60465283 -0.05512981 565.57112744 -0.05532788 C611.26911853 -0.0583891 656.96710934 -0.06230023 702.6651001 -0.06866455 C704.13974519 -0.0688699 704.13974519 -0.0688699 705.64418109 -0.0690794 C721.49535257 -0.07129186 737.34652404 -0.07357543 753.19769551 -0.07586844 C798.83499346 -0.08246918 844.4722912 -0.08854708 890.10958958 -0.09113979 C891.04740913 -0.09119333 891.98522867 -0.09124686 892.951467 -0.09130202 C913.53524473 -0.09246759 934.11902246 -0.09336253 954.70280021 -0.09400098 C962.98409808 -0.09426262 971.26539594 -0.09456324 979.5466938 -0.09487724 C980.453065 -0.09491067 981.3594362 -0.0949441 982.29327319 -0.09497854 C1011.53214649 -0.09607629 1040.77101827 -0.10035178 1070.00989095 -0.10628221 C1099.44564347 -0.1122381 1128.88139453 -0.1151017 1158.31714767 -0.11362399 C1162.37843223 -0.11342089 1166.43971679 -0.11325351 1170.50100136 -0.11310768 C1171.69526555 -0.11306286 1171.69526555 -0.11306286 1172.9136563 -0.11301713 C1185.55605163 -0.11263545 1198.19844387 -0.11562997 1210.84083836 -0.12000986 C1223.2511532 -0.12424074 1235.661464 -0.12495055 1248.07177922 -0.12183181 C1254.71928777 -0.12026011 1261.3667881 -0.12043046 1268.01429617 -0.12488318 C1274.04728598 -0.12889391 1280.08025708 -0.12840517 1286.11324656 -0.12413998 C1288.29604721 -0.12341865 1290.47884918 -0.12441717 1292.66164813 -0.12723524 C1295.59980337 -0.13079158 1298.53789023 -0.12832067 1301.47604316 -0.1241985 C1302.33715609 -0.12670737 1303.19826901 -0.12921625 1304.08547626 -0.13180115 C1309.88584499 -0.11415501 1309.88584499 -0.11415501 1311 1 C1311.09985224 3.16123564 1311.12740334 5.32580769 1311.12863445 7.48934841 C1311.13126401 8.52346508 1311.13126401 8.52346508 1311.13394669 9.578473 C1311.13864512 11.91768616 1311.13613141 14.25683819 1311.13371277 16.59605408 C1311.13557881 18.27841082 1311.13787868 19.96076712 1311.14057809 21.64312273 C1311.14672807 26.28884919 1311.14655877 30.93455773 1311.14538372 35.58028734 C1311.14518051 40.58172091 1311.15069074 45.5831486 1311.15544128 50.58457947 C1311.16376582 60.39164609 1311.16649693 70.19870671 1311.16705366 80.00577658 C1311.16752796 87.97293825 1311.16957836 95.94009794 1311.17275429 103.90725899 C1311.18156567 126.46893211 1311.18617289 149.03060046 1311.18542381 171.59227531 C1311.18538386 172.80987866 1311.1853439 174.02748201 1311.18530273 175.28198242 C1311.18524141 177.11060348 1311.18524141 177.11060348 1311.18517885 178.97616637 C1311.18477221 198.74293122 1311.19434501 218.50967704 1311.2084411 238.27643638 C1311.22278278 258.5466415 1311.22971251 278.81683732 1311.22884732 299.08704764 C1311.2285146 310.4777628 1311.23129476 321.86845801 1311.24202538 333.25916862 C1311.25110138 342.9560497 1311.25332963 352.65290179 1311.24651595 362.34978526 C1311.24323603 367.30183688 1311.24324666 372.25383278 1311.2518692 377.20587921 C1311.25967066 381.73272955 1311.25836865 386.25947938 1311.24958507 390.78632707 C1311.24803593 392.43033309 1311.24991866 394.07434638 1311.25544515 395.71834385 C1311.26242505 397.94062386 1311.25727568 400.1625434 1311.24888897 402.38481045 C1311.24910634 403.62291609 1311.24932371 404.86102174 1311.24954766 406.13664573 C1311 409 1311 409 1309 411 C1306.41918945 411.25396729 1306.41918945 411.25396729 1303.11328125 411.25878906 C1301.87860107 411.26509338 1300.6439209 411.27139771 1299.37182617 411.27789307 C1298.018716 411.27431338 1296.66560713 411.27021145 1295.3125 411.265625 C1293.93009371 411.26697175 1292.54768787 411.26891236 1291.1652832 411.27142334 C1288.26671849 411.27437418 1285.36827697 411.27007836 1282.46972656 411.26074219 C1278.75039363 411.24934755 1275.03134932 411.25590725 1271.31202698 411.26788712 C1268.45704973 411.27510688 1265.60214115 411.27281728 1262.74716187 411.26763153 C1261.37559983 411.26629535 1260.00403161 411.26794166 1258.63247681 411.27259064 C1256.7172253 411.27765748 1254.80195199 411.26856831 1252.88671875 411.25878906 C1251.79576904 411.25719788 1250.70481934 411.25560669 1249.58081055 411.25396729 C1247 411 1247 411 1245 409 C1245 295.81 1245 182.62 1245 66 C855.27 66 465.54 66 64 66 C64 179.85 64 293.7 64 411 C42.88 411 21.76 411 0 411 C0 275.37 0 139.74 0 0 Z " fill="#020202" transform="translate(604,200)"/>
<path d="M0 0 C21.12 0 42.24 0 64 0 C64 113.85 64 227.7 64 345 C453.73 345 843.46 345 1245 345 C1245 231.48 1245 117.96 1245 1 C1247.74069206 -0.37034603 1249.92679333 -0.12719926 1252.99438477 -0.12939453 C1254.88127769 -0.13412277 1254.88127769 -0.13412277 1256.80628967 -0.13894653 C1258.18466222 -0.13715689 1259.56303445 -0.13510597 1260.94140625 -0.1328125 C1262.3486279 -0.1334858 1263.75584943 -0.13445604 1265.16307068 -0.13571167 C1268.11287544 -0.13718695 1271.06264993 -0.1350392 1274.01245117 -0.13037109 C1277.80130955 -0.12466866 1281.59009718 -0.12795711 1285.37895298 -0.13394356 C1288.28448525 -0.13754928 1291.19000061 -0.13641063 1294.09553337 -0.13381577 C1295.49304144 -0.1331468 1296.89055103 -0.13397387 1298.28805733 -0.13629532 C1300.23704119 -0.13882255 1302.18603041 -0.13429062 1304.13500977 -0.12939453 C1305.24594498 -0.12859894 1306.35688019 -0.12780334 1307.5014801 -0.12698364 C1310 0 1310 0 1311 1 C1311 135.97 1311 270.94 1311 410 C878.37 410 445.74 410 0 410 C0 274.7 0 139.4 0 0 Z " fill="#010101" transform="translate(604,1102)"/>
<path d="M0 0 C16.2996805 -0.02345091 32.59935546 -0.04103869 48.89904881 -0.05181217 C56.4687564 -0.05694938 64.03845347 -0.06394249 71.6081543 -0.07543945 C78.2125987 -0.08546552 84.81703547 -0.09187212 91.42148727 -0.09408849 C94.91239013 -0.09538226 98.40327115 -0.09838228 101.89416695 -0.10573006 C139.60592818 -0.18185872 139.60592818 -0.18185872 150 3 C150 3.66 150 4.32 150 5 C150.99 5.12375 150.99 5.12375 152 5.25 C158.67612453 6.91903113 163.32794525 9.95909882 168 15 C168.99 15.78375 169.98 16.5675 171 17.375 C174.41575838 20.36378858 176.55471515 23.18823244 179 27 C179 27.66 179 28.32 179 29 C179.66 29 180.32 29 181 29 C188.92276135 44.03376436 190.61514455 59.1213367 190.4609375 75.80859375 C190.45854374 77.55395877 190.45764971 79.29932641 190.4581604 81.04469299 C190.45506407 84.66757804 190.43873804 88.29005845 190.41162109 91.9128418 C190.37746685 96.53112955 190.36999961 101.14897946 190.37151146 105.76737881 C190.37096535 109.3578348 190.35996259 112.94819722 190.34550858 116.5386219 C190.33919822 118.24128579 190.33521538 119.94396013 190.33372116 121.64663506 C190.31782557 130.27954092 190.21430482 138.59264024 188 147 C187.71898437 148.26070312 187.43796875 149.52140625 187.1484375 150.8203125 C186.89320313 151.91085937 186.63796875 153.00140625 186.375 154.125 C186.11460937 155.24132812 185.85421875 156.35765625 185.5859375 157.5078125 C185.39257812 158.33023438 185.19921875 159.15265625 185 160 C184.34 160 183.68 160 183 160 C182.91492188 160.85335937 182.82984375 161.70671875 182.7421875 162.5859375 C181.89479352 166.48394981 180.29887407 169.34962242 178.125 172.625 C177.72498779 173.23110107 177.32497559 173.83720215 176.9128418 174.46166992 C166.77052158 189.41841971 153.57246519 200.58681026 136 206 C134.68 206 133.36 206 132 206 C132 206.66 132 207.32 132 208 C119.97189349 211.40715259 108.52341777 211.35146441 96.125 211.1875 C89.48375 211.125625 82.8425 211.06375 76 211 C76.33 229.15 76.66 247.3 77 266 C79.28891589 267.14445795 80.95447836 267.27444745 83.5 267.5 C84.386875 267.5825 85.27375 267.665 86.1875 267.75 C87.115625 267.8325 88.04375 267.915 89 268 C90.83366365 268.16299232 92.6670201 268.32949024 94.5 268.5 C95.3146875 268.5721875 96.129375 268.644375 96.96875 268.71875 C99 269 99 269 101 270 C101 282.54 101 295.08 101 308 C67.67 308 34.34 308 0 308 C0 295.46 0 282.92 0 270 C2.34501931 268.82749034 4.07701912 268.75838601 6.6875 268.5625 C11.00085606 268.1777114 14.83627282 267.20107515 19 266 C20.98 266 22.96 266 25 266 C25.33 192.08 25.66 118.16 26 42 C18.08 41.01 10.16 40.02 2 39 C0 37 0 37 -0.22705078 33.37646484 C-0.22673357 31.82125311 -0.21540299 30.26601949 -0.1953125 28.7109375 C-0.1924826 27.89251373 -0.18965271 27.07408997 -0.18673706 26.23086548 C-0.17552532 23.61209607 -0.15041929 20.99366636 -0.125 18.375 C-0.11497147 16.60156743 -0.1058454 14.82812951 -0.09765625 13.0546875 C-0.07558278 8.70299374 -0.04104644 4.3515545 0 0 Z " fill="#111212" transform="translate(590,755)"/>
<path d="M0 0 C0.69902907 0.00359811 1.39805815 0.00719622 2.11826992 0.01090336 C2.86180438 0.01078282 3.60533884 0.01066229 4.37140465 0.0105381 C6.78892811 0.01128716 9.2063754 0.01891504 11.62388515 0.0267725 C13.11212534 0.02824194 14.60036603 0.02926264 16.08860683 0.02982426 C21.61990538 0.03507688 27.15119288 0.04903797 32.6824789 0.06192875 C51.2140414 0.09286625 51.2140414 0.09286625 70.1199789 0.12442875 C70.4499789 34.77442875 70.7799789 69.42442875 71.1199789 105.12442875 C89.00900957 105.37346383 89.00900957 105.37346383 106.89829922 105.60245609 C109.16491205 105.63770889 111.43151455 105.67363522 113.6981039 105.71036625 C115.41972744 105.72740604 115.41972744 105.72740604 117.17613125 105.74479008 C127.30692485 105.92377174 136.90684853 106.70980378 146.1199789 111.12442875 C147.44273946 111.49751506 148.77229967 111.8548929 150.1199789 112.12442875 C150.1199789 112.78442875 150.1199789 113.44442875 150.1199789 114.12442875 C150.81220547 114.18501469 151.50443203 114.24560062 152.21763515 114.3080225 C156.07256269 115.392383 158.60322126 117.60157753 161.5574789 120.18692875 C162.13296474 120.68354008 162.70845058 121.18015141 163.30137539 121.69181156 C167.54807577 125.43794112 171.12659153 129.29210032 174.1199789 134.12442875 C174.52861172 134.76509281 174.93724453 135.40575687 175.35826015 136.065835 C177.10260076 138.93710356 178.1199789 140.71258132 178.1199789 144.12442875 C178.7799789 144.12442875 179.4399789 144.12442875 180.1199789 144.12442875 C180.60911431 146.05943611 181.08563608 147.99763215 181.5574789 149.93692875 C181.82431484 151.01587406 182.09115078 152.09481937 182.36607265 153.20646 C184.0193941 161.79859167 184.27302229 170.46654691 184.32530117 179.19547367 C184.33520077 180.24071201 184.34510036 181.28595036 184.35529995 182.36286259 C184.38658729 185.77685213 184.41154113 189.19085553 184.43638515 192.6048975 C184.45698307 194.98814576 184.47798023 197.3713906 184.49935818 199.754632 C184.55428601 205.99668433 184.60382325 212.23876802 184.65220547 218.48087406 C184.70263569 224.86273804 184.7582089 231.24455706 184.81333828 237.62638187 C184.92056109 250.12569368 185.02160837 262.62504414 185.1199789 275.12442875 C191.7199789 276.44442875 198.3199789 277.76442875 205.1199789 279.12442875 C205.1199789 291.66442875 205.1199789 304.20442875 205.1199789 317.12442875 C192.62040469 317.14697801 180.12084388 317.16534281 167.62125397 317.17624092 C161.81784277 317.18147019 156.01444616 317.18856862 150.21104336 317.1998682 C144.61547037 317.21069553 139.01991145 317.21670525 133.4243288 317.21930599 C131.28438947 317.22116052 129.14445094 317.22478166 127.00451756 317.23015881 C124.01832925 317.23736719 121.03219983 317.23841978 118.0460043 317.23795414 C117.15192867 317.24154942 116.25785305 317.24514469 115.33668423 317.24884892 C109.23403107 317.23848091 109.23403107 317.23848091 108.1199789 316.12442875 C108.03139245 313.3854879 108.00474412 310.67189605 108.02232265 307.9330225 C108.0237376 307.11318378 108.02515255 306.29334507 108.02661037 305.44866276 C108.03222601 302.81971493 108.04478111 300.19085101 108.0574789 297.56192875 C108.06249189 295.78393518 108.06705515 294.00594029 108.07115078 292.22794437 C108.08220052 287.8600733 108.09947559 283.49226527 108.1199789 279.12442875 C109.7699789 279.12442875 111.4199789 279.12442875 113.1199789 279.12442875 C113.1199789 278.46442875 113.1199789 277.80442875 113.1199789 277.12442875 C119.7199789 276.46442875 126.3199789 275.80442875 133.1199789 275.12442875 C133.05877991 260.49455995 132.98187799 245.86486407 132.88426399 231.23519039 C132.83933192 224.44210075 132.79991139 217.64906322 132.77354336 210.85587406 C132.74808305 204.3005538 132.70716079 197.74543583 132.65679264 191.19025898 C132.64010282 188.68885146 132.62860175 186.18740379 132.622365 183.68594837 C132.61274726 180.18326052 132.58471434 176.68116925 132.55235195 173.17862797 C132.55378704 172.14356617 132.55522213 171.10850437 132.55670071 170.04207706 C132.46744714 162.61917994 132.46744714 162.61917994 129.1199789 156.12442875 C111.32608654 148.49847488 90.47915703 153.12442875 71.1199789 153.12442875 C71.1199789 193.05442875 71.1199789 232.98442875 71.1199789 274.12442875 C80.7394252 276.57743415 80.7394252 276.57743415 90.3699789 278.31192875 C91.46826015 278.47048344 92.5665414 278.62903812 93.6981039 278.7923975 C94.49732265 278.90196781 95.2965414 279.01153812 96.1199789 279.12442875 C96.14462818 284.37548317 96.16281458 289.6265042 96.17491055 294.87760258 C96.17995109 296.66536896 96.18678345 298.45313119 96.19541836 300.24088383 C96.20749621 302.80494043 96.21320985 305.36894272 96.21763515 307.9330225 C96.22279644 308.73719105 96.22795773 309.5413596 96.23327541 310.36989689 C96.23347105 312.2884459 96.18199873 314.20688243 96.1199789 316.12442875 C94.17916482 318.06524283 91.24382911 317.25129923 88.66053677 317.25995731 C87.26567547 317.25692097 87.26567547 317.25692097 85.84263515 317.25382328 C84.38178997 317.25645176 84.38178997 317.25645176 82.89143276 317.25913334 C79.65509696 317.26355374 76.41881531 317.2606132 73.1824789 317.25724125 C70.94427893 317.25791423 68.70607902 317.25888421 66.4678793 317.26014042 C61.77019971 317.26161765 57.0725391 317.25946203 52.37486172 317.25479984 C46.33837276 317.24910255 40.30192826 317.25238142 34.26544094 317.25837231 C29.64166329 317.26197725 25.01789627 317.26083964 20.39411831 317.25824451 C18.16765748 317.25757506 15.9411957 317.25840431 13.71473598 317.26072407 C10.60890536 317.26324949 7.50314781 317.25941155 4.39732265 317.25382328 C3.46741512 317.25584751 2.53750759 317.25787174 1.57942104 317.25995731 C-4.76575883 317.23869102 -4.76575883 317.23869102 -5.8800211 316.12442875 C-6.00577077 313.48158976 -6.06866516 310.8662806 -6.0831461 308.222085 C-6.08884617 307.42918568 -6.09454624 306.63628635 -6.10041904 305.81935978 C-6.10988207 304.13891789 -6.11640818 302.45845733 -6.12025547 300.7779932 C-6.12996773 298.20108698 -6.1609805 295.6249759 -6.1925211 293.04825687 C-6.19905016 291.41870434 -6.20430101 289.78914608 -6.2081461 288.159585 C-6.2204929 287.38558857 -6.2328397 286.61159214 -6.24556065 285.81414127 C-6.23646641 283.64029789 -6.23646641 283.64029789 -5.8800211 280.12442875 C-2.98437429 278.19399755 -1.83291161 277.77941976 1.4637289 277.3080225 C2.29775234 277.18362797 3.13177578 277.05923344 3.99107265 276.93106937 C5.29238125 276.74834476 5.29238125 276.74834476 6.6199789 276.56192875 C8.3390568 276.31287957 10.05782297 276.06166665 11.7762289 275.8080225 C12.91801601 275.64644657 12.91801601 275.64644657 14.08286953 275.48160648 C16.31209713 275.14241025 16.31209713 275.14241025 19.1199789 274.12442875 C19.18836277 244.98524445 19.24148003 215.84606796 19.27317489 186.70681951 C19.27692718 183.26952506 19.28081013 179.83223077 19.28477383 176.39493656 C19.28595422 175.36844732 19.28595422 175.36844732 19.28715847 174.32122092 C19.30022543 163.22922122 19.32388633 152.137268 19.35143729 141.04529591 C19.37945568 129.67058215 19.39592291 118.29590291 19.40224439 106.92115247 C19.40616545 100.52930696 19.41542121 94.13756698 19.43716908 87.7457552 C19.45745239 81.73598884 19.46382929 75.726372 19.45930195 69.71657467 C19.46013082 67.50497788 19.46614474 65.29337635 19.47759533 63.08180904 C19.49241186 60.07390691 19.48897234 57.06657737 19.48074245 54.05866337 C19.49385024 52.73086115 19.49385024 52.73086115 19.50722283 51.37623465 C19.52327459 48.70990227 19.52327459 48.70990227 19.1199789 45.12442875 C15.75875613 42.88361357 13.314875 42.40324944 9.3699789 41.62442875 C-4.14790146 38.85654838 -4.14790146 38.85654838 -5.8800211 37.12442875 C-5.98097674 34.46986682 -6.01973108 31.84187699 -6.0128336 29.18692875 C-6.01379032 28.39165775 -6.01474705 27.59638676 -6.01573277 26.77701664 C-6.01641453 25.09236414 -6.01456052 23.40770904 -6.01039219 21.72306156 C-6.00504385 19.13543678 -6.01033729 16.54798559 -6.01673985 13.96036625 C-6.01607906 12.32755336 -6.0147979 10.69474059 -6.0128336 9.06192875 C-6.01485783 8.28277103 -6.01688206 7.50361332 -6.01896763 6.70084476 C-5.98958424 0.01307306 -5.98958424 0.01307306 0 0 Z " fill="#111211" transform="translate(810.8800210952759,648.8755712509155)"/>
<path d="M0 0 C0.84874191 0.00045319 1.69748383 0.00090637 2.57194519 0.00137329 C3.90628349 -0.00366463 3.90628349 -0.00366463 5.26757812 -0.00880432 C8.22858555 -0.01835385 11.18953657 -0.02026015 14.15055847 -0.02133179 C16.20786055 -0.02454417 18.2651624 -0.02790823 20.32246399 -0.03141785 C24.64863107 -0.0374209 28.97477814 -0.0392568 33.3009491 -0.03866577 C38.82307135 -0.03856467 44.34506352 -0.05215759 49.86715508 -0.06943798 C54.12418699 -0.08060945 58.38118812 -0.08258332 62.63823318 -0.08205605 C64.67222157 -0.08323069 66.70621088 -0.08762333 68.74018478 -0.09538841 C94.23935234 -0.18353582 94.23935234 -0.18353582 103.90837097 4.58413696 C104.76044128 4.9953479 105.6125116 5.40655884 106.49040222 5.83023071 C107.35020691 6.26464478 108.2100116 6.69905884 109.09587097 7.14663696 C110.06395691 7.58362915 111.03204285 8.02062134 112.02946472 8.47085571 C115.61693782 10.43139834 118.36680838 12.75215666 121.34587097 15.52163696 C121.8743866 15.99085571 122.40290222 16.46007446 122.94743347 16.94351196 C126.01949591 19.76606679 127.8989101 22.13243893 129.09587097 26.14663696 C129.75587097 26.14663696 130.41587097 26.14663696 131.09587097 26.14663696 C132.41531981 28.50937094 133.6996137 30.88308092 134.97087097 33.27163696 C135.518078 34.24036743 135.518078 34.24036743 136.07633972 35.22866821 C143.40689933 49.22337292 141.35827596 66.94827814 141.29118347 82.23257446 C141.2874471 84.74605191 141.28460308 87.25953082 141.28260803 89.77301025 C141.27579311 95.67642228 141.26008552 101.57975643 141.23990905 107.48313677 C141.21519954 114.87616495 141.20458447 122.26920295 141.19352722 129.66226196 C141.17216387 142.82375851 141.13847971 155.9851929 141.09587097 169.14663696 C141.98953369 169.28407822 142.88319641 169.42151947 143.80393982 169.56312561 C144.97567749 169.7433577 146.14741516 169.92358978 147.35466003 170.10928345 C148.51644775 170.2879747 149.67823547 170.46666595 150.87522888 170.65077209 C154.20005038 171.1626769 157.52453551 171.67503031 160.84587097 172.20913696 C161.83071472 172.36511353 162.81555847 172.52109009 163.83024597 172.68179321 C166.09587097 173.14663696 166.09587097 173.14663696 167.09587097 174.14663696 C167.19682661 176.8011989 167.23558096 179.42918872 167.22868347 182.08413696 C167.2296402 182.87940796 167.23059692 183.67467896 167.23158264 184.49404907 C167.2322644 186.17870157 167.2304104 187.86335667 167.22624207 189.54800415 C167.22089372 192.13562893 167.22618716 194.72308012 167.23258972 197.31069946 C167.23192894 198.94351235 167.23064778 200.57632513 167.22868347 202.20913696 C167.2307077 202.98829468 167.23273193 203.76745239 167.2348175 204.57022095 C167.21082202 210.03168592 167.21082202 210.03168592 166.09587097 211.14663696 C164.38567737 211.24724054 162.67130795 211.27740162 160.9581604 211.28034973 C159.8439975 211.28461472 158.72983459 211.2888797 157.58190918 211.29327393 C156.34829147 211.29282074 155.11467377 211.29236755 153.84367371 211.29190063 C152.55249634 211.29525925 151.26131897 211.29861786 149.93101501 211.30207825 C146.37432353 211.31094664 142.81765609 211.31325789 139.26095462 211.31389403 C137.03378025 211.31460434 134.80661201 211.31673855 132.57943916 211.31939125 C124.79332721 211.32866256 117.0072324 211.33272498 109.22111511 211.3319397 C101.99424341 211.33134233 94.76744718 211.34182205 87.54059452 211.35768336 C81.32041466 211.37084221 75.10025914 211.37611994 68.8800655 211.37548429 C65.17282885 211.37523121 61.46565885 211.37797418 57.7584362 211.38866234 C8.55720882 211.52013017 8.55720882 211.52013017 -6.72053528 196.56851196 C-14.86382776 187.53659544 -19.72321246 178.35467367 -21.50959778 166.33413696 C-21.6840059 164.17663592 -21.6840059 164.17663592 -22.90412903 163.14663696 C-23.87345595 150.9999679 -24.71017296 137.16591554 -18.90412903 126.14663696 C-18.46455872 125.27007446 -18.0249884 124.39351196 -17.57209778 123.49038696 C-10.40617258 110.86384535 2.91416292 97.21332944 16.97087097 92.70913696 C19.77141572 92.20503891 22.26025625 91.97478153 25.09587097 92.14663696 C25.09587097 91.48663696 25.09587097 90.82663696 25.09587097 90.14663696 C30.04587097 89.65163696 30.04587097 89.65163696 35.09587097 89.14663696 C35.09587097 88.48663696 35.09587097 87.82663696 35.09587097 87.14663696 C35.67965515 87.04117554 36.26343933 86.93571411 36.86491394 86.82705688 C39.56800145 86.33527107 42.26940411 85.83474571 44.97087097 85.33413696 C45.88868347 85.16849243 46.80649597 85.0028479 47.75212097 84.83218384 C54.9180692 83.4948766 61.96834345 81.86285183 68.71696472 79.05679321 C72.10438856 77.76078376 75.59928044 77.20069802 79.15837097 76.58413696 C85.16536946 75.54511863 85.16536946 75.54511863 91.09587097 74.14663696 C90.93478907 62.02505868 90.93478907 62.02505868 86.09587097 51.14663696 C83.49563048 49.28353375 83.49563048 49.28353375 81.09587097 48.14663696 C81.09587097 47.48663696 81.09587097 46.82663696 81.09587097 46.14663696 C74.70534711 46.26393897 68.31500289 46.38877468 61.92472839 46.51895142 C59.74898144 46.56237203 57.57319883 46.60404167 55.39738464 46.64395142 C52.27723929 46.70148198 49.15727464 46.76522519 46.03727722 46.83023071 C45.05811844 46.84694321 44.07895966 46.8636557 43.07012939 46.88087463 C41.71884193 46.91079247 41.71884193 46.91079247 40.34025574 46.9413147 C39.14445641 46.96463112 39.14445641 46.96463112 37.92449951 46.98841858 C36.07735715 46.95064362 36.07735715 46.95064362 35.09587097 48.14663696 C34.81078198 49.75250147 34.58138904 51.36834873 34.37712097 52.98648071 C34.24950378 53.96681274 34.1218866 54.94714478 33.99040222 55.95718384 C33.86020691 56.98907837 33.7300116 58.0209729 33.59587097 59.08413696 C33.33873372 61.11450289 33.0784699 63.14447606 32.81462097 65.17398071 C32.70053894 66.07882202 32.58645691 66.98366333 32.46891785 67.91592407 C32.09587097 70.14663696 32.09587097 70.14663696 31.09587097 72.14663696 C25.84481655 72.17128624 20.59379552 72.18947264 15.34269714 72.2015686 C13.55493076 72.20660915 11.76716853 72.2134415 9.97941589 72.22207642 C7.41535929 72.23415427 4.851357 72.23986791 2.28727722 72.24429321 C1.0810244 72.25203514 1.0810244 72.25203514 -0.14959717 72.25993347 C-2.06814618 72.26012911 -3.98658271 72.20865679 -5.90412903 72.14663696 C-7.77398724 70.27677876 -7.03192251 67.11516076 -7.03352356 64.62319946 C-7.03527588 63.94190979 -7.0370282 63.26062012 -7.03883362 62.5586853 C-7.04325145 60.29631029 -7.0403144 58.03401283 -7.03694153 55.77163696 C-7.03761459 54.20604436 -7.03858463 52.64045186 -7.0398407 51.07485962 C-7.04131758 47.78953051 -7.03916344 44.50422855 -7.03450012 41.21890259 C-7.02880283 36.9984318 -7.03208189 32.7780246 -7.03807259 28.55755615 C-7.04167847 25.32347124 -7.04053949 22.08940152 -7.03794479 18.85531616 C-7.0372756 17.29871615 -7.03810368 15.74211478 -7.04042435 14.18551636 C-7.04295133 12.013665 -7.03910968 9.841918 -7.03352356 7.67007446 C-7.03272797 6.4317688 -7.03193237 5.19346313 -7.03111267 3.91763306 C-6.80159431 -1.0908425 -4.43356257 0.02462138 0 0 Z " fill="#111212" transform="translate(1807.9041290283203,754.8533630371094)"/>
<path d="M0 0 C3.251329 0.01072242 6.50210565 0.00004917 9.75341797 -0.01269531 C28.77127331 -0.02548375 44.72123514 1.26255735 61.75732422 10.26074219 C61.75732422 10.92074219 61.75732422 11.58074219 61.75732422 12.26074219 C62.43794922 12.44636719 63.11857422 12.63199219 63.81982422 12.82324219 C70.35691945 16.02224624 74.92494176 22.2218365 78.75732422 28.26074219 C78.75732422 29.25074219 78.75732422 30.24074219 78.75732422 31.26074219 C79.41732422 31.26074219 80.07732422 31.26074219 80.75732422 31.26074219 C81.74732422 35.71574219 81.74732422 35.71574219 82.75732422 40.26074219 C83.41732422 40.26074219 84.07732422 40.26074219 84.75732422 40.26074219 C87.25268609 54.51995289 87.7811824 68.00541074 84.75732422 82.26074219 C84.09732422 82.26074219 83.43732422 82.26074219 82.75732422 82.26074219 C82.69544922 83.06511719 82.63357422 83.86949219 82.56982422 84.69824219 C81.49195428 89.42428729 79.24141003 93.13587645 76.75732422 97.26074219 C76.09732422 97.26074219 75.43732422 97.26074219 74.75732422 97.26074219 C74.37253906 98.12892578 74.37253906 98.12892578 73.97998047 99.01464844 C70.02421064 106.28163773 63.03557477 110.80018651 55.75732422 114.26074219 C54.53722656 114.85048828 54.53722656 114.85048828 53.29248047 115.45214844 C47.25449321 118.26074219 47.25449321 118.26074219 43.75732422 118.26074219 C43.75732422 118.92074219 43.75732422 119.58074219 43.75732422 120.26074219 C42.22978516 120.60685547 42.22978516 120.60685547 40.67138672 120.95996094 C32.95284982 122.73165521 25.30562736 124.63236657 17.69482422 126.82324219 C10.61861339 128.85138208 3.56422223 130.35677087 -3.69189453 131.58496094 C-7.2919262 132.27011548 -10.72617837 133.23628283 -14.24267578 134.26074219 C-16.89006606 134.81866328 -19.54236402 135.30947675 -22.20361328 135.79589844 C-24.22601107 136.06665991 -24.22601107 136.06665991 -25.24267578 137.26074219 C-25.18380872 144.25120608 -23.62552583 149.62706582 -18.86767578 154.88574219 C-14.05079461 159.38099765 -14.05079461 159.38099765 -8.24267578 162.26074219 C-8.24267578 162.92074219 -8.24267578 163.58074219 -8.24267578 164.26074219 C20.46732422 164.59074219 49.17732422 164.92074219 78.75732422 165.26074219 C78.75732422 180.44074219 78.75732422 195.62074219 78.75732422 211.26074219 C58.10574395 211.34095981 58.10574395 211.34095981 49.22607422 211.35839844 C43.19381136 211.37030172 37.16160986 211.38430317 31.12939453 211.41162109 C26.2599483 211.43353237 21.39056798 211.44534892 16.5210762 211.45049667 C14.67377308 211.4541599 12.82647311 211.46131205 10.97919846 211.4722023 C-17.00626998 211.63045383 -17.00626998 211.63045383 -27.24267578 206.26074219 C-27.92426758 205.91479004 -28.60585937 205.56883789 -29.30810547 205.21240234 C-49.4988688 194.83524814 -65.31249615 180.18535647 -73.24267578 158.26074219 C-73.24267578 157.27074219 -73.24267578 156.28074219 -73.24267578 155.26074219 C-73.90267578 155.26074219 -74.56267578 155.26074219 -75.24267578 155.26074219 C-77.79237333 144.14229808 -77.53433569 133.04299716 -77.50830078 121.70214844 C-77.50965025 119.62377375 -77.51159312 117.54539937 -77.51409912 115.46702576 C-77.51703253 111.13431765 -77.51280736 106.80169254 -77.50341797 102.46899414 C-77.4919744 96.91855876 -77.4986251 91.36831579 -77.5105629 85.81788731 C-77.5177872 81.53623501 -77.51549179 77.25462844 -77.51030731 72.97297478 C-77.50897498 70.92565831 -77.51060392 68.87833767 -77.51526642 66.83102608 C-77.52034646 63.97618696 -77.51260278 61.12166145 -77.50146484 58.2668457 C-77.50551331 57.4247052 -77.50956177 56.5825647 -77.51373291 55.71490479 C-77.48272775 51.42415002 -77.18745965 48.18168019 -75.24267578 44.26074219 C-74.77405685 42.82656228 -74.31546265 41.3890623 -73.86767578 39.94824219 C-68.47098352 23.89043727 -57.53794261 12.63727678 -42.50439453 5.10839844 C-40.24267578 4.26074219 -40.24267578 4.26074219 -36.24267578 4.26074219 C-36.24267578 3.60074219 -36.24267578 2.94074219 -36.24267578 2.26074219 C-24.16147523 0.12044879 -12.24347898 -0.04799193 0 0 Z " fill="#111212" transform="translate(1110.24267578125,754.7392578125)"/>
<path d="M0 0 C2.57977183 0.00306138 5.15954531 0.00493462 7.73931885 0.00567627 C13.11860006 0.01025816 18.49772051 0.02421366 23.87695312 0.046875 C30.78748027 0.07592753 37.69790459 0.08611831 44.60848618 0.0905571 C49.92194771 0.09410174 55.23538617 0.10450595 60.54883575 0.11643219 C63.09906064 0.12214283 65.64928785 0.1268989 68.1995163 0.13069916 C71.74470659 0.13753145 75.28980096 0.15114477 78.83496094 0.16699219 C79.89562775 0.16811005 80.95629456 0.16922791 82.04910278 0.17037964 C83.00773224 0.17608978 83.96636169 0.18179993 84.95404053 0.18768311 C86.21046671 0.1921451 86.21046671 0.1921451 87.49227524 0.19669724 C89.390625 0.328125 89.390625 0.328125 90.390625 1.328125 C90.48488095 3.47556049 90.50805148 5.62613526 90.50415039 7.77563477 C90.50429642 8.44877716 90.50444244 9.12191956 90.5045929 9.81546021 C90.50389378 12.05018284 90.49610152 14.2848231 90.48828125 16.51953125 C90.48641706 18.06509862 90.48499316 19.61066657 90.48399353 21.15623474 C90.4801684 25.23169577 90.47033817 29.30712137 90.45928955 33.38256836 C90.44907532 37.53824382 90.44449589 41.69392499 90.43945312 45.84960938 C90.42871589 54.00913087 90.41163954 62.16862353 90.390625 70.328125 C87.22748347 71.90969577 83.82772957 71.4700185 80.35546875 71.4609375 C79.16468468 71.46237259 79.16468468 71.46237259 77.94984436 71.46383667 C76.27116822 71.46451751 74.59248945 71.4626699 72.91381836 71.45849609 C70.33506403 71.45313941 67.75648332 71.45844792 65.17773438 71.46484375 C63.54947878 71.46418309 61.92122329 71.46290218 60.29296875 71.4609375 C59.12893776 71.46397385 59.12893776 71.46397385 57.94139099 71.46707153 C52.50558083 71.44308083 52.50558083 71.44308083 51.390625 70.328125 C50.94185239 67.02455523 50.57142684 63.72205234 50.22851562 60.40625 C49.77350365 56.38142867 48.985117 53.03748714 47.390625 49.328125 C47.390625 48.338125 47.390625 47.348125 47.390625 46.328125 C38.82732404 46.36632811 30.26454108 46.42589963 21.70160103 46.51202774 C17.72455428 46.55137389 13.74772467 46.58362478 9.77050781 46.59912109 C5.92524749 46.61437334 2.08058466 46.64896779 -1.76440811 46.69643402 C-3.22420148 46.71116026 -4.6840802 46.71916094 -6.1439476 46.72000885 C-16.67989248 46.73227176 -26.25419738 47.61314702 -34.421875 54.953125 C-35.10894531 55.54351563 -35.79601563 56.13390625 -36.50390625 56.7421875 C-43.22899241 65.00194081 -44.327634 72.60631945 -44.17700195 83.03955078 C-44.17558855 84.39076179 -44.17638916 85.74197663 -44.17921448 87.09318542 C-44.1806387 90.73125079 -44.15141286 94.36847805 -44.11634469 98.00635004 C-44.08491327 101.81928317 -44.08213732 105.63223928 -44.07621765 109.44528198 C-44.06072815 116.65228195 -44.01976682 123.85889896 -43.9694702 131.06573093 C-43.91342344 139.27615136 -43.88605187 147.48659088 -43.86099303 155.69715524 C-43.80884591 172.57436601 -43.72099998 189.45120491 -43.609375 206.328125 C-42.949375 206.328125 -42.289375 206.328125 -41.609375 206.328125 C-40.949375 209.628125 -40.289375 212.928125 -39.609375 216.328125 C-38.949375 216.328125 -38.289375 216.328125 -37.609375 216.328125 C-37.19816406 217.20597656 -36.78695313 218.08382812 -36.36328125 218.98828125 C-30.74735871 229.68229856 -21.97943425 238.11475198 -10.609375 242.328125 C-10.609375 242.988125 -10.609375 243.648125 -10.609375 244.328125 C-5.164375 245.318125 -5.164375 245.318125 0.390625 246.328125 C0.390625 246.988125 0.390625 247.648125 0.390625 248.328125 C44.940625 248.823125 44.940625 248.823125 90.390625 249.328125 C90.390625 264.178125 90.390625 279.028125 90.390625 294.328125 C88.32915942 296.38959058 83.92354257 295.48544281 81.08569336 295.48925781 C80.21391953 295.49422272 79.34214569 295.49918762 78.44395447 295.50430298 C75.53945131 295.51898538 72.63500304 295.5257422 69.73046875 295.53125 C67.7075653 295.53700341 65.68466185 295.54276112 63.66175842 295.54852295 C59.40365342 295.55905486 55.14556738 295.56488089 50.88745117 295.56835938 C45.47113733 295.57380098 40.05508042 295.59772553 34.6388464 295.62633133 C30.44937965 295.64511708 26.25997227 295.65017205 22.070467 295.65169525 C20.0768858 295.65469451 18.08330496 295.66262904 16.08976555 295.67588043 C-13.33731337 295.85726692 -13.33731337 295.85726692 -26.3125 288.5859375 C-29.42679834 286.88048841 -32.6728841 285.66414321 -35.9921875 284.41796875 C-43.02713339 281.48849128 -48.8046656 277.95119195 -54.671875 273.078125 C-55.3721582 272.50328369 -56.07244141 271.92844238 -56.79394531 271.33618164 C-60.98049068 267.84526951 -64.85227289 264.29705435 -68.25 260.01171875 C-69.63978968 258.22504118 -69.63978968 258.22504118 -71.56640625 256.40234375 C-77.49135972 250.38676002 -85.609375 240.0755932 -85.609375 231.328125 C-86.269375 231.328125 -86.929375 231.328125 -87.609375 231.328125 C-87.80273438 230.66425781 -87.99609375 230.00039063 -88.1953125 229.31640625 C-88.45570312 228.43339844 -88.71609375 227.55039062 -88.984375 226.640625 C-89.36722656 225.33544922 -89.36722656 225.33544922 -89.7578125 224.00390625 C-90.55194862 221.36929739 -90.55194862 221.36929739 -91.56261349 219.06393623 C-95.33731659 209.19838901 -96.05277017 198.96282674 -96.01342773 188.50830078 C-96.02029099 187.2054715 -96.02715424 185.90264221 -96.03422546 184.56033325 C-96.05195828 181.03120149 -96.05102653 177.50232103 -96.04528308 173.97315836 C-96.04216182 171.00646445 -96.04831596 168.0398168 -96.05432183 165.07312953 C-96.06830045 158.06384948 -96.06686197 151.05469148 -96.05541992 144.04541016 C-96.0439476 136.85962446 -96.05801458 129.67421241 -96.0848164 122.48847592 C-96.10710253 116.27650362 -96.11358189 110.06464749 -96.10773998 103.85263813 C-96.10439955 100.16118014 -96.10658782 96.46996138 -96.12399101 92.77853775 C-96.2023375 74.41643668 -95.97976321 58.06890141 -87.609375 41.328125 C-86.949375 41.328125 -86.289375 41.328125 -85.609375 41.328125 C-85.403125 40.503125 -85.196875 39.678125 -84.984375 38.828125 C-79.47832764 24.81273171 -63.75783556 12.77736991 -50.609375 6.328125 C-47.91400713 5.3244106 -45.32784378 4.56148726 -42.51446533 3.97088623 C-39.6661386 3.38321301 -39.6661386 3.38321301 -37.16400146 2.56744385 C-25.08050271 -0.93586753 -12.4572411 -0.06464683 0 0 Z " fill="#111211" transform="translate(1504.609375,670.671875)"/>
<path d="M0 0 C1.1430661 -0.00043808 2.2861322 -0.00087616 3.46383667 -0.00132751 C7.19181204 0.00074018 10.9193213 0.02397537 14.6472168 0.04760742 C17.25180313 0.05321056 19.85639264 0.05747726 22.46098328 0.06047058 C28.5840495 0.06973704 34.70695204 0.09427629 40.8299467 0.12451905 C47.80953591 0.1582329 54.78913359 0.17459143 61.76878417 0.18960536 C76.10725528 0.22083178 90.44558957 0.27348525 104.78393555 0.34057617 C104.807061 9.45016782 104.82485166 18.55974943 104.83574772 27.66936398 C104.84097611 31.89888988 104.84807294 36.12839577 104.859375 40.35791016 C104.87020546 44.4362616 104.87621272 48.51459374 104.87881279 52.59295845 C104.88066675 54.15235257 104.88428682 55.71174557 104.8896656 57.27113152 C104.89687816 59.44786779 104.8979264 61.62452332 104.89746094 63.80126953 C104.89968155 65.0425914 104.90190216 66.28391327 104.90419006 67.56285095 C104.78393555 70.34057617 104.78393555 70.34057617 103.78393555 71.34057617 C101.05669276 71.44157105 98.35531032 71.48028146 95.62768555 71.47338867 C94.40148499 71.47482376 94.40148499 71.47482376 93.1505127 71.47628784 C91.41878177 71.47696963 89.68704831 71.47511546 87.95532227 71.47094727 C85.29527073 71.46559896 82.63538805 71.47089229 79.9753418 71.47729492 C78.29695601 71.47663414 76.61857032 71.47535298 74.94018555 71.47338867 C74.13915405 71.4754129 73.33812256 71.47743713 72.51281738 71.47952271 C66.89888634 71.45552696 66.89888634 71.45552696 65.78393555 70.34057617 C65.49890722 68.72292849 65.2694891 67.09538758 65.06518555 65.46557617 C64.87375977 63.98831055 64.87375977 63.98831055 64.6784668 62.48120117 C64.41544596 60.38745117 64.15242513 58.29370117 63.8894043 56.19995117 C63.69797852 54.72268555 63.69797852 54.72268555 63.50268555 53.21557617 C63.38860352 52.30549805 63.27452148 51.39541992 63.15698242 50.45776367 C62.99639158 48.36180624 62.99639158 48.36180624 61.78393555 47.34057617 C59.80164618 47.23597879 57.81560212 47.20201825 55.83056641 47.1953125 C54.55511459 47.18893265 53.27966278 47.1825528 51.96556091 47.17597961 C50.55996742 47.17445008 49.15437343 47.17333658 47.7487793 47.17260742 C46.31205715 47.16939464 44.87533534 47.16603055 43.43861389 47.16252136 C40.41805261 47.15651985 37.39751996 47.15468225 34.37695312 47.15527344 C30.52256439 47.15537454 26.66836205 47.14178122 22.8140173 47.12450123 C19.84128493 47.11332632 16.86859662 47.11135599 13.89584541 47.11188316 C12.47620571 47.11070904 11.05656465 47.1063194 9.63694572 47.0985508 C-1.73614459 47.04219488 -11.97498718 47.32048152 -20.77856445 55.40307617 C-28.32316684 63.5404555 -29.95326226 71.43988424 -29.81542969 82.29833984 C-29.81937241 83.55652023 -29.82331512 84.81470062 -29.82737732 86.11100769 C-29.83727705 89.53258466 -29.81630918 92.95332125 -29.78889728 96.3747766 C-29.76490838 99.96958518 -29.76801102 103.56438162 -29.76759338 107.15925598 C-29.76297914 113.19046085 -29.73942771 119.22134804 -29.703125 125.25244141 C-29.6613426 132.21215863 -29.64380605 139.17159058 -29.64050525 146.13142604 C-29.63689868 153.56514797 -29.61802198 160.99876832 -29.59338498 168.43244767 C-29.58717527 170.56518168 -29.5835272 172.69790794 -29.58035088 174.83064842 C-29.57332368 178.81086032 -29.54890206 182.79086373 -29.52246094 186.77099609 C-29.52179626 187.94571472 -29.52113159 189.12043335 -29.52044678 190.33074951 C-29.46790114 196.0672951 -29.14701856 200.92695726 -27.21606445 206.34057617 C-26.91635742 207.46206055 -26.91635742 207.46206055 -26.6105957 208.60620117 C-24.6572919 215.2657873 -21.1659331 220.68027334 -17.21606445 226.34057617 C-16.80356445 226.9412793 -16.39106445 227.54198242 -15.96606445 228.16088867 C-12.97225254 232.13184753 -9.1971233 234.50215221 -5.0090332 237.04370117 C-4.41735352 237.47166992 -3.82567383 237.89963867 -3.21606445 238.34057617 C-3.21606445 239.00057617 -3.21606445 239.66057617 -3.21606445 240.34057617 C-1.76200195 240.71182617 -1.76200195 240.71182617 -0.27856445 241.09057617 C3.48377329 242.15682574 6.94077999 243.68030494 10.4753418 245.34057617 C16.17871047 247.81107089 21.16615385 248.64232802 27.35961914 248.65942383 C28.19930237 248.66946945 29.0389856 248.67951508 29.90411377 248.68986511 C32.66352694 248.72061281 35.42284345 248.73770877 38.18237305 248.75463867 C40.10194729 248.77335709 42.02151337 248.79293101 43.94107056 248.81332397 C48.98141659 248.86457994 54.02178929 248.90424065 59.06225586 248.94146729 C64.21043456 248.98154791 69.358503 249.03262174 74.5065918 249.08276367 C84.59896218 249.17944558 94.69139492 249.26387512 104.78393555 249.34057617 C104.80920617 255.73094848 104.82676872 262.121308 104.83886719 268.51171875 C104.84390862 270.6875049 104.85074162 272.86328764 104.859375 275.0390625 C104.87144893 278.15910684 104.87716559 281.27910656 104.8815918 284.39916992 C104.88675308 285.3783287 104.89191437 286.35748749 104.89723206 287.36631775 C104.89730759 288.26717606 104.89738312 289.16803436 104.89746094 290.09619141 C104.89968155 290.89339096 104.90190216 291.69059052 104.90419006 292.51194763 C104.78393555 294.34057617 104.78393555 294.34057617 103.78393555 295.34057617 C101.07400212 295.45177449 98.38932536 295.49797363 95.6784668 295.50170898 C94.8278064 295.50667389 93.977146 295.51163879 93.10070801 295.51675415 C90.2659424 295.53143826 87.43123307 295.53819423 84.59643555 295.54370117 C82.62076822 295.54945517 80.6451009 295.55521288 78.66943359 295.56097412 C74.5096816 295.571507 70.34994902 295.57733215 66.19018555 295.58081055 C60.90400359 295.58624735 55.61808553 295.61016078 50.33198547 295.6387825 C46.23941353 295.65758878 42.14690224 295.66262432 38.05429077 295.66414642 C36.10898422 295.66714197 34.16367792 295.67506333 32.21841431 295.6883316 C17.22239404 295.78316639 1.84659191 295.40737574 -12.02856445 289.02807617 C-12.72957275 288.7203125 -13.43058105 288.41254883 -14.15283203 288.09545898 C-15.54441114 287.47825328 -16.93196401 286.85186418 -18.31469727 286.21508789 C-20.01814597 285.43160647 -21.73734212 284.68257776 -23.45825195 283.93823242 C-31.93169683 280.06112568 -39.32536469 274.57890199 -46.21606445 268.34057617 C-46.21606445 267.68057617 -46.21606445 267.02057617 -46.21606445 266.34057617 C-46.80000977 266.08920898 -47.38395508 265.8378418 -47.9855957 265.57885742 C-58.02839047 260.00343546 -66.79773789 244.71403854 -71.21606445 234.34057617 C-71.21606445 233.35057617 -71.21606445 232.36057617 -71.21606445 231.34057617 C-71.87606445 231.34057617 -72.53606445 231.34057617 -73.21606445 231.34057617 C-73.40942383 230.60452148 -73.6027832 229.8684668 -73.80200195 229.11010742 C-74.06239258 228.13428711 -74.3227832 227.1584668 -74.59106445 226.15307617 C-74.84629883 225.19014648 -75.1015332 224.2272168 -75.36450195 223.23510742 C-76.16412891 220.51710936 -77.14170658 217.95932349 -78.21606445 215.34057617 C-79.27734216 211.30772089 -79.29761191 207.49949658 -79.21606445 203.34057617 C-79.87606445 203.34057617 -80.53606445 203.34057617 -81.21606445 203.34057617 C-81.28623654 185.24230314 -81.33909273 167.14406557 -81.37150097 149.04568577 C-81.3869506 140.64173896 -81.40800358 132.23787683 -81.44238281 123.83398438 C-81.47234362 116.5066511 -81.49165329 109.17937918 -81.49832994 101.85198635 C-81.50223091 97.97443891 -81.51135873 94.09706693 -81.53325462 90.21957588 C-81.55372555 86.56456817 -81.55987702 82.90980699 -81.5553875 79.25474739 C-81.55659708 77.28477955 -81.57268344 75.31483811 -81.58932495 73.34494019 C-81.5680318 67.19886295 -81.2405884 61.9560339 -78.95799732 56.21221828 C-78.19125542 54.27799149 -77.68138655 52.36626628 -77.21606445 50.34057617 C-76.55606445 50.34057617 -75.89606445 50.34057617 -75.21606445 50.34057617 C-75.13743164 49.50655273 -75.05879883 48.6725293 -74.9777832 47.81323242 C-74.04296451 43.55141797 -72.28934887 40.46711392 -70.02856445 36.77807617 C-69.6540918 36.13161133 -69.27961914 35.48514648 -68.89379883 34.8190918 C-66.23323116 30.40874101 -63.31700961 27.53729218 -59.21606445 24.34057617 C-57.54554721 22.677769 -55.8787676 21.01119695 -54.21606445 19.34057617 C-44.8853295 11.17962362 -37.26223898 6.28060686 -25.21606445 3.34057617 C-24.23002133 3.0816392 -23.24397821 2.82270224 -22.228055 2.55591869 C-14.69134072 0.65968942 -7.75403892 -0.07985668 0 0 Z " fill="#111211" transform="translate(350.216064453125,670.659423828125)"/>
<path d="M0 0 C0.87555542 0.00302124 1.75111084 0.00604248 2.65319824 0.00915527 C5.8822023 0.02469346 9.11103655 0.06657575 12.33984375 0.10546875 C19.57921875 0.16734375 26.81859375 0.22921875 34.27734375 0.29296875 C34.27734375 15.80296875 34.27734375 31.31296875 34.27734375 47.29296875 C22.06734375 47.62296875 9.85734375 47.95296875 -2.72265625 48.29296875 C-2.72265625 48.95296875 -2.72265625 49.61296875 -2.72265625 50.29296875 C-3.65078125 50.82921875 -4.57890625 51.36546875 -5.53515625 51.91796875 C-9.447514 54.83305884 -10.5919941 57.69481084 -11.72265625 62.29296875 C-12.09117936 65.7717495 -12.07437337 69.20419687 -12.015625 72.69921875 C-12.01138016 73.66452515 -12.00713531 74.62983154 -12.00276184 75.62438965 C-11.98608722 78.68087705 -11.94845617 81.7366836 -11.91015625 84.79296875 C-11.89509491 86.8762925 -11.88140905 88.95962668 -11.86914062 91.04296875 C-11.83878353 96.12676981 -11.78004089 101.20911511 -11.72265625 106.29296875 C2.13734375 106.29296875 15.99734375 106.29296875 30.27734375 106.29296875 C30.27734375 120.48296875 30.27734375 134.67296875 30.27734375 149.29296875 C26.68859375 149.62296875 23.09984375 149.95296875 19.40234375 150.29296875 C18.31324707 150.39738281 17.22415039 150.50179687 16.10205078 150.609375 C6.71802716 151.4291961 -2.17043541 151.29296875 -11.72265625 151.29296875 C-11.72265625 192.21296875 -11.72265625 233.13296875 -11.72265625 275.29296875 C-5.12265625 275.95296875 1.47734375 276.61296875 8.27734375 277.29296875 C8.27734375 277.95296875 8.27734375 278.61296875 8.27734375 279.29296875 C9.59734375 279.29296875 10.91734375 279.29296875 12.27734375 279.29296875 C12.27734375 291.83296875 12.27734375 304.37296875 12.27734375 317.29296875 C-20.72265625 317.29296875 -53.72265625 317.29296875 -87.72265625 317.29296875 C-87.72265625 304.75296875 -87.72265625 292.21296875 -87.72265625 279.29296875 C-82.64769716 277.60131572 -79.30526739 276.97571697 -74.09765625 276.73046875 C-70.07410809 276.53370841 -66.64034673 276.27239137 -62.72265625 275.29296875 C-63.21765625 212.42796875 -63.21765625 212.42796875 -63.72265625 148.29296875 C-70.65265625 147.63296875 -77.58265625 146.97296875 -84.72265625 146.29296875 C-85.71265625 145.63296875 -86.70265625 144.97296875 -87.72265625 144.29296875 C-87.98925808 141.3846199 -88.07044749 138.69158607 -88.015625 135.78515625 C-88.00925774 134.52422653 -88.00925774 134.52422653 -88.00276184 133.23782349 C-87.98594157 130.54754882 -87.94828406 127.85801776 -87.91015625 125.16796875 C-87.8951137 123.34636497 -87.88142455 121.52474947 -87.86914062 119.703125 C-87.83857611 115.23255456 -87.77986333 110.76359591 -87.72265625 106.29296875 C-79.80265625 105.96296875 -71.88265625 105.63296875 -63.72265625 105.29296875 C-63.67367188 101.53664063 -63.6246875 97.7803125 -63.57421875 93.91015625 C-63.52018644 90.26623603 -63.46288769 86.62238077 -63.40527344 82.97851562 C-63.36702515 80.4489426 -63.33216508 77.91931595 -63.30078125 75.38964844 C-63.25504121 71.75045631 -63.19706031 68.11163198 -63.13671875 64.47265625 C-63.12516754 63.34431366 -63.11361633 62.21597107 -63.10171509 61.05343628 C-63.00257081 55.76110178 -62.84805979 51.23254515 -60.72265625 46.29296875 C-60.48804688 45.61492188 -60.2534375 44.936875 -60.01171875 44.23828125 C-55.38424558 31.55356068 -48.26564327 20.93950384 -37.72265625 12.29296875 C-34.41015625 11.00390625 -34.41015625 11.00390625 -31.72265625 10.29296875 C-31.72265625 9.63296875 -31.72265625 8.97296875 -31.72265625 8.29296875 C-27.95814113 5.55513957 -24.18250103 4.48226069 -19.72265625 3.29296875 C-18.36784425 2.77843814 -17.01311323 2.26369427 -15.65844727 1.7487793 C-10.3904891 -0.01417363 -5.51386619 -0.09142982 0 0 Z " fill="#111212" transform="translate(2079.72265625,648.70703125)"/>
<path d="M0 0 C15.51 0 31.02 0 47 0 C47 27.72 47 55.44 47 84 C60.86 84 74.72 84 89 84 C89.020625 90.909375 89.04125 97.81875 89.0625 104.9375 C89.071604 107.12109131 89.08070801 109.30468262 89.09008789 111.55444336 C89.09300698 113.2745762 89.09555555 114.99470972 89.09765625 116.71484375 C89.10277222 117.61658325 89.10788818 118.51832275 89.11315918 119.4473877 C89.11346882 121.63191745 89.0624587 123.8163633 89 126 C86.73058767 128.26941233 80.7561656 127.40086342 77.55078125 127.51757812 C71.04874655 127.80050739 64.59014411 128.39499798 58.11425781 129.02368164 C57.14050201 129.11736275 56.16674622 129.21104385 55.16348267 129.30756378 C52.77556243 129.53743199 50.3877402 129.76827044 48 130 C47.95367936 143.60393169 47.91813212 157.20784464 47.89637566 170.8118391 C47.88593418 177.12857535 47.8717682 183.44525768 47.84912109 189.76196289 C47.8274059 195.85681502 47.81543412 201.95161525 47.81024551 208.04650307 C47.80654739 210.3729363 47.799326 212.69936665 47.78853989 215.02577782 C47.77404275 218.28181493 47.77202134 221.53763702 47.77294922 224.79370117 C47.76216339 226.23947792 47.76216339 226.23947792 47.75115967 227.71446228 C47.77019922 233.88034888 48.08789559 237.94081063 52.4375 242.625 C53.283125 243.40875 54.12875 244.1925 55 245 C55.38389893 245.53343018 55.76779785 246.06686035 56.16333008 246.61645508 C59.10750258 248.83427052 62.40067745 248.48179199 65.94921875 248.51171875 C66.97674255 248.53667419 66.97674255 248.53667419 68.02502441 248.56213379 C70.57887205 248.61987737 73.13324394 248.6521719 75.6875 248.6875 C81.400625 248.790625 87.11375 248.89375 93 249 C93 264.18 93 279.36 93 295 C82.5740625 295.12375 82.5740625 295.12375 71.9375 295.25 C68.69667603 295.30462402 68.69667603 295.30462402 65.39038086 295.36035156 C51.70245825 295.49612219 38.66439557 294.8348822 26.875 287.0625 C25.86179687 286.41410156 24.84859375 285.76570313 23.8046875 285.09765625 C17.36168732 280.27886642 9.24824986 272.99377727 7 265 C6.34 265 5.68 265 5 265 C-3.62961617 247.67003311 -4.60290911 232.76210398 -4.609375 213.6953125 C-4.62437663 211.15940302 -4.6411079 208.62350323 -4.65948486 206.08761597 C-4.69852254 200.13111587 -4.72032013 194.17471625 -4.73345876 188.21811759 C-4.74942306 181.42701549 -4.78787725 174.63609593 -4.82805204 167.84510064 C-4.91007361 153.89679554 -4.9644003 139.94849545 -5 126 C-5.68626465 125.91959473 -6.3725293 125.83918945 -7.07958984 125.75634766 C-10.17919361 125.38813511 -13.27703442 125.00673983 -16.375 124.625 C-17.99535156 124.43550781 -17.99535156 124.43550781 -19.6484375 124.2421875 C-21.1953125 124.04882812 -21.1953125 124.04882812 -22.7734375 123.8515625 C-23.72653809 123.73635254 -24.67963867 123.62114258 -25.66162109 123.50244141 C-28 123 -28 123 -30 121 C-30.17525055 118.20315203 -30.23143189 115.5067192 -30.1953125 112.7109375 C-30.1924826 111.89251373 -30.18965271 111.07408997 -30.18673706 110.23086548 C-30.17552532 107.61209607 -30.15041929 104.99366636 -30.125 102.375 C-30.11497147 100.60156743 -30.1058454 98.82812951 -30.09765625 97.0546875 C-30.07728266 92.70288825 -30.03813673 88.35182519 -30 84 C-17.625 83.505 -17.625 83.505 -5 83 C-3.28725145 73.11614241 -2.52499879 63.41550526 -2.1484375 53.41796875 C-2.0846708 51.86710529 -2.02025652 50.31626833 -1.95523071 48.76545715 C-1.78772501 44.72988416 -1.62887954 40.69401761 -1.47198486 36.65802002 C-1.28091319 31.79080273 -1.0788232 26.92403138 -0.87863159 22.05718231 C-0.57742245 14.70509171 -0.29000445 7.35257953 0 0 Z " fill="#111212" transform="translate(2156,671)"/>
<path d="M0 0 C8.01465346 -0.09271207 16.02908259 -0.16377038 24.04413986 -0.20724869 C27.76594748 -0.22811704 31.48738802 -0.25641981 35.20898438 -0.30175781 C38.8010951 -0.34524413 42.39285295 -0.36914277 45.9852066 -0.37950897 C47.35517177 -0.3868955 48.72511777 -0.40132001 50.09493256 -0.42292023 C52.01459389 -0.4519848 53.9346109 -0.45363416 55.85449219 -0.45410156 C56.94703308 -0.46298401 58.03957397 -0.47186646 59.16522217 -0.48101807 C62.66543586 0.1129142 63.858839 1.22186888 66 4 C66 4.66 66 5.32 66 6 C66.66 6 67.32 6 68 6 C68.680625 7.2065625 68.680625 7.2065625 69.375 8.4375 C70.73420995 11.15236193 70.73420995 11.15236193 73.1875 11.8125 C73.785625 11.874375 74.38375 11.93625 75 12 C75 11.34 75 10.68 75 10 C76.91149668 8.9901527 78.82941569 7.99245505 80.75 7 C81.81734375 6.443125 82.8846875 5.88625 83.984375 5.3125 C87 4 87 4 91 4 C91 3.34 91 2.68 91 2 C99.97832583 0.16498427 108.58730609 -0.26826755 117.734375 -0.1953125 C119.10727734 -0.19157097 120.48018239 -0.18872941 121.85308838 -0.18673706 C125.42374363 -0.17919013 128.99422978 -0.15962144 132.56481934 -0.1373291 C136.2254813 -0.11667512 139.88617125 -0.10769404 143.546875 -0.09765625 C150.69798481 -0.0763647 157.84898122 -0.04234042 165 0 C165.02312524 9.23997552 165.04091601 18.47994114 165.05181217 27.71993923 C165.05704061 32.00999915 165.06413753 36.30003933 165.07543945 40.59008789 C165.08626975 44.726794 165.09227714 48.86348108 165.09487724 53.00020027 C165.09673124 54.58192304 165.10035136 56.16364471 165.10573006 57.74535942 C165.1129424 59.95322838 165.11399086 62.16101773 165.11352539 64.36889648 C165.115746 65.62798325 165.11796661 66.88707001 165.12025452 68.18431091 C165 71 165 71 164 72 C161.26105915 72.08858646 158.5474673 72.11523479 155.80859375 72.09765625 C154.98875504 72.0962413 154.16891632 72.09482635 153.32423401 72.09336853 C150.69528618 72.08775289 148.06642227 72.07519779 145.4375 72.0625 C143.65950643 72.05748701 141.88151154 72.05292376 140.10351562 72.04882812 C135.73564455 72.03777839 131.36783652 72.02050331 127 72 C125.6408768 68.85157714 124.72474562 66.09303491 124.40234375 62.6796875 C124.32306641 61.89722656 124.24378906 61.11476563 124.16210938 60.30859375 C124.08798828 59.50550781 124.01386719 58.70242188 123.9375 57.875 C123.78292586 56.26793995 123.62549019 54.66115191 123.46484375 53.0546875 C123.36610962 51.99483643 123.36610962 51.99483643 123.26538086 50.91357422 C123.02941985 48.78340852 123.02941985 48.78340852 122 46 C111.52953892 45.26090863 102.06770492 47.47409391 92 50 C91.25943359 50.18506104 90.51886719 50.37012207 89.75585938 50.56079102 C89.17642578 50.70572998 88.59699219 50.85066895 88 51 C88 51.66 88 52.32 88 53 C87.278125 53.495 86.55625 53.99 85.8125 54.5 C80.74177361 59.00731234 77.29677399 66.15921537 76.87695217 73.00707626 C76.87787396 73.71870045 76.87879576 74.43032463 76.87974548 75.16351318 C76.87837082 75.98518478 76.87699615 76.80685638 76.87557983 77.65342712 C76.87917511 78.54606766 76.88277039 79.43870819 76.88647461 80.35839844 C76.88632858 81.30507889 76.88618256 82.25175934 76.8860321 83.22712708 C76.88672847 86.3545664 76.89450802 89.48194608 76.90234375 92.609375 C76.90420891 94.77842171 76.90563235 96.94746883 76.90663147 99.11651611 C76.91044894 104.82441369 76.92027269 110.53228582 76.93133545 116.24017334 C76.9415661 122.06505997 76.94613264 127.88995072 76.95117188 133.71484375 C76.96189562 145.14324035 76.97896283 156.57161806 77 168 C79.20018841 169.24905749 79.20018841 169.24905749 82.8125 169.375 C88.9498612 170.11444111 94.97656175 171.60997579 101 173 C101 185.54 101 198.08 101 211 C87.97889052 211.02254888 74.9577939 211.04091384 61.93666935 211.05181217 C55.89112183 211.05704153 49.8455883 211.06414014 43.80004883 211.07543945 C37.97105712 211.08626645 32.14207891 211.09227643 26.31307793 211.09487724 C24.0838239 211.09673183 21.85457065 211.10035308 19.62532234 211.10573006 C16.51460266 211.11293799 13.40393951 211.11399105 10.29321289 211.11352539 C9.36173431 211.11712067 8.43025574 211.12071594 7.47055054 211.12442017 C1.11405216 211.11405216 1.11405216 211.11405216 0 210 C-0.08858646 207.26105915 -0.11523479 204.5474673 -0.09765625 201.80859375 C-0.0962413 200.98875504 -0.09482635 200.16891632 -0.09336853 199.32423401 C-0.08775289 196.69528618 -0.07519779 194.06642227 -0.0625 191.4375 C-0.05748701 189.65950643 -0.05292376 187.88151154 -0.04882812 186.10351562 C-0.03777839 181.73564455 -0.02050331 177.36783652 0 173 C11.39321063 170.82992504 11.39321063 170.82992504 17.0625 170.4375 C20.67092212 170.22807072 20.67092212 170.22807072 24 169 C24.33 126.76 24.66 84.52 25 41 C21.37 41 17.74 41 14 41 C12.16443906 40.91367411 10.32906383 40.8018095 8.5 40.625 C7.7059375 40.55539062 6.911875 40.48578125 6.09375 40.4140625 C4 40 4 40 1 38 C-0.23180134 34.30459598 -0.12412112 30.89696622 -0.09765625 27.05078125 C-0.0962413 26.27816452 -0.09482635 25.50554779 -0.09336853 24.70951843 C-0.08777466 22.24380611 -0.07522333 19.77818485 -0.0625 17.3125 C-0.05748421 15.63997527 -0.05292144 13.96744912 -0.04882812 12.29492188 C-0.03780724 8.19657954 -0.02054684 4.09830521 0 0 Z " fill="#111211" transform="translate(1219,755)"/>
<path d="M0 0 C7.9909387 -0.10492916 15.97937562 -0.20508411 23.97040558 -0.25875092 C27.69175255 -0.28512855 31.41252791 -0.32036048 35.13354492 -0.37719727 C38.71919713 -0.43162214 42.30429591 -0.46144192 45.89032936 -0.47438622 C47.25670902 -0.48360764 48.62305919 -0.50161581 49.9892025 -0.52865028 C62.04987732 -0.7577729 62.04987732 -0.7577729 65.26489258 2.32348633 C67.08824046 5.13611653 68.64505034 7.93353498 70 11 C73.8063457 10.32829194 77.35206816 9.27253436 81 8 C81 7.34 81 6.68 81 6 C97.92301911 -2.38014889 118.18106936 -0.24285693 136.5 -0.125 C145.575 -0.08375 154.65 -0.0425 164 0 C164 23.76 164 47.52 164 72 C154.904375 72.0928125 154.904375 72.0928125 145.625 72.1875 C142.75482178 72.22846802 142.75482178 72.22846802 139.82666016 72.27026367 C138.31413404 72.27902348 136.80160087 72.28666861 135.2890625 72.29296875 C134.50039795 72.30831665 133.7117334 72.32366455 132.89916992 72.33947754 C130.62353516 72.34057617 130.62353516 72.34057617 127 72 C125.0544853 69.08172795 124.71961068 68.23535322 124.4375 64.9453125 C124.36273437 64.16542969 124.28796875 63.38554688 124.2109375 62.58203125 C124.10652344 61.36580078 124.10652344 61.36580078 124 60.125 C123.40211867 52.8539364 123.40211867 52.8539364 121 46 C108.57333644 45.5517436 94.81781201 45.89733088 85.12109375 54.70703125 C82.27083725 57.85948362 80.24709528 60.88458557 79 65 C78.34 65 77.68 65 77 65 C76.67 99.32 76.34 133.64 76 169 C83.87761416 170.31876553 83.87761416 170.31876553 91.76171875 171.59765625 C92.72722656 171.75105469 93.69273438 171.90445313 94.6875 172.0625 C95.68136719 172.21847656 96.67523437 172.37445312 97.69921875 172.53515625 C100 173 100 173 101 174 C101 186.21 101 198.42 101 211 C67.67 211 34.34 211 0 211 C0 198.46 0 185.92 0 173 C9 170 9 170 24 168 C24 126.42 24 84.84 24 42 C16.08 41.01 8.16 40.02 0 39 C0 26.13 0 13.26 0 0 Z " fill="#111211" transform="translate(1612,755)"/>
<path d="M0 0 C18.67733555 -0.04010881 18.67733555 -0.04010881 26.61132812 -0.04882812 C32.03459648 -0.05481633 37.45784803 -0.06191604 42.88110352 -0.07543945 C47.2512283 -0.08626914 51.62133508 -0.09227701 55.99147224 -0.09487724 C57.66250963 -0.09673135 59.33354597 -0.10035168 61.00457573 -0.10573006 C63.33697551 -0.11294159 65.66929993 -0.1139909 68.00170898 -0.11352539 C68.6994191 -0.11712067 69.39712921 -0.12071594 70.11598206 -0.12442017 C74.88594784 -0.11405216 74.88594784 -0.11405216 76 1 C76.09695318 3.16426174 76.12186765 5.33175253 76.12025452 7.4981842 C76.12110894 8.18507543 76.12196337 8.87196665 76.12284368 9.57967275 C76.12450045 11.89827455 76.11897393 14.21680517 76.11352539 16.53540039 C76.11324354 18.19069924 76.11340122 19.84599822 76.1139679 21.501297 C76.11425594 26.00936933 76.10835819 30.51741529 76.10139394 35.02548146 C76.09516145 39.73137737 76.09455668 44.43727382 76.09336853 49.14317322 C76.0902549 58.06088634 76.08204109 66.97858727 76.07201904 75.89629501 C76.06085888 86.04606297 76.0553477 96.1958315 76.05032361 106.34560406 C76.03985851 127.23040971 76.02205808 148.11520366 76 169 C82.6 169.66 89.2 170.32 96 171 C96 171.66 96 172.32 96 173 C97.65 173.33 99.3 173.66 101 174 C101 186.21 101 198.42 101 211 C67.67 211 34.34 211 0 211 C0 198.46 0 185.92 0 173 C3.27172502 171.36413749 4.6237608 170.73902131 8.00390625 170.40234375 C9.11475586 170.28342773 9.11475586 170.28342773 10.24804688 170.16210938 C11.39370117 170.05092773 11.39370117 170.05092773 12.5625 169.9375 C18.36160047 169.39650834 18.36160047 169.39650834 24 168 C24 126.42 24 84.84 24 42 C17.73 41.34 11.46 40.68 5 40 C3.35 39.34 1.7 38.68 0 38 C0 25.46 0 12.92 0 0 Z " fill="#111211" transform="translate(472,755)"/>
<path d="M0 0 C1.35568336 0.00333092 1.35568336 0.00333092 2.73875427 0.00672913 C3.75973709 0.00680466 4.78071991 0.00688019 5.8326416 0.00695801 C6.94304306 0.01211929 8.05344452 0.01728058 9.19749451 0.02259827 C10.89336952 0.02472069 10.89336952 0.02472069 12.62350464 0.02688599 C16.25105891 0.03250433 19.8785525 0.04505994 23.50608826 0.05775452 C25.95856133 0.06276715 28.41103536 0.06733047 30.86351013 0.07142639 C36.89022371 0.08247971 42.91690165 0.09923568 48.94358826 0.12025452 C48.94358826 0.78025452 48.94358826 1.44025452 48.94358826 2.12025452 C49.68608826 2.20275452 50.42858826 2.28525452 51.19358826 2.37025452 C54.58649406 3.29559246 55.78328507 4.36400563 57.94358826 7.12025452 C59.82067302 11.68864546 60.23131179 15.83162106 60.20237732 20.71107483 C60.20588196 21.44691299 60.2093866 22.18275116 60.21299744 22.94088745 C60.22175928 25.36014907 60.21598289 27.77911519 60.20921326 30.19837952 C60.21056208 31.89220739 60.21250442 33.58603489 60.2150116 35.27986145 C60.21795585 38.82711987 60.21368988 42.37427739 60.20433044 45.92152405 C60.19297125 50.44481633 60.19947734 54.96787029 60.21147537 59.49115372 C60.21874275 62.98981991 60.21638318 66.48843073 60.21121979 69.98709869 C60.20989493 71.65348591 60.21148975 73.31987832 60.21617889 74.98625946 C60.23494046 83.53146368 60.21336485 91.8057215 57.94358826 100.12025452 C57.28358826 100.12025452 56.62358826 100.12025452 55.94358826 100.12025452 C55.85077576 101.17212952 55.85077576 101.17212952 55.75608826 102.24525452 C54.1532276 107.91691532 50.52056805 111.00244452 45.63108826 113.93275452 C41.35404637 116.17174288 37.74012027 116.8586255 32.94358826 117.12025452 C32.94358826 117.78025452 32.94358826 118.44025452 32.94358826 119.12025452 C21.06358826 119.12025452 9.18358826 119.12025452 -3.05641174 119.12025452 C-3.07895923 103.75223737 -3.09739119 88.38422765 -3.10822392 73.01619816 C-3.11338676 65.88103711 -3.12042923 58.74588704 -3.1318512 51.61073303 C-3.14285849 44.73135714 -3.14868791 37.8519927 -3.15128899 30.97260857 C-3.1531438 28.34143837 -3.15676547 25.71026883 -3.1621418 23.07910347 C-3.1693481 19.40799202 -3.17040286 15.73692848 -3.16993713 12.06581116 C-3.17353241 10.96601929 -3.17712769 9.86622742 -3.18083191 8.73310852 C-3.17876991 7.24174126 -3.17876991 7.24174126 -3.17666626 5.72024536 C-3.17758805 4.85099458 -3.17850985 3.98174379 -3.17945957 3.08615208 C-3.00878188 0.35928668 -2.7267652 0.15945534 0 0 Z " fill="#FDFDFD" transform="translate(669.0564117431641,800.8797454833984)"/>
<path d="M0 0 C16.83 0 33.66 0 51 0 C51 16.5 51 33 51 50 C38.6559375 50.0309375 38.6559375 50.0309375 26.0625 50.0625 C22.16062866 50.07615601 22.16062866 50.07615601 18.17993164 50.09008789 C16.1316737 50.09300687 14.08341519 50.09555547 12.03515625 50.09765625 C10.96068237 50.10277222 9.8862085 50.10788818 8.7791748 50.11315918 C7.76415894 50.11328003 6.74914307 50.11340088 5.70336914 50.11352539 C4.37433311 50.11685631 4.37433311 50.11685631 3.01844788 50.12025452 C1 50 1 50 0 49 C-0.09319449 47.4651703 -0.117458 45.92607918 -0.11352539 44.38842773 C-0.11334412 42.89635803 -0.11334412 42.89635803 -0.11315918 41.37414551 C-0.10804321 40.32126343 -0.10292725 39.26838135 -0.09765625 38.18359375 C-0.09664917 37.22134888 -0.09564209 36.259104 -0.09460449 35.2677002 C-0.0893546 31.65762142 -0.07539348 28.04755957 -0.0625 24.4375 C-0.041875 16.373125 -0.02125 8.30875 0 0 Z " fill="#0F1010" transform="translate(497,671)"/>
<path d="M0 0 C0 14.52 0 29.04 0 44 C-7.20829153 44.022932 -14.41645694 44.04285258 -21.62475586 44.05493164 C-24.07788522 44.0599662 -26.53101157 44.06679424 -28.98413086 44.07543945 C-32.5063552 44.08754332 -36.02853994 44.09323703 -39.55078125 44.09765625 C-41.20089958 44.10539818 -41.20089958 44.10539818 -42.88435364 44.11329651 C-43.90518539 44.11337204 -44.92601715 44.11344757 -45.9777832 44.11352539 C-47.32680473 44.11685631 -47.32680473 44.11685631 -48.70307922 44.12025452 C-51 44 -51 44 -54 43 C-54 42.34 -54 41.68 -54 41 C-54.7425 40.773125 -55.485 40.54625 -56.25 40.3125 C-59.6660911 38.68209289 -60.94903674 37.17834265 -63 34 C-63.42578125 30.5546875 -63.42578125 30.5546875 -63.3125 26.875 C-63.28800781 25.65554688 -63.26351563 24.43609375 -63.23828125 23.1796875 C-62.83302505 17.77184242 -62.83302505 17.77184242 -60.6171875 15.71875 C-59.75480469 15.11546875 -59.75480469 15.11546875 -58.875 14.5 C-58.31554688 14.0978125 -57.75609375 13.695625 -57.1796875 13.28125 C-50.84268521 9.55627374 -44.67495995 8.17053767 -37.5 6.9375 C-30.21626694 5.69134063 -30.21626694 5.69134063 -23.05859375 3.88671875 C-19.8907068 2.96831474 -17.27961101 2.84001898 -14 3 C-14 2.34 -14 1.68 -14 1 C-9.07337118 -0.27138808 -5.46314577 0 0 0 Z " fill="#FAFAF9" transform="translate(1899,876)"/>
<path d="M0 0 C6.13805474 -0.09919164 12.27563853 -0.17162165 18.41430664 -0.21972656 C20.50065239 -0.23978913 22.58694227 -0.2670459 24.6730957 -0.30175781 C27.67933978 -0.35051159 30.68483769 -0.37302267 33.69140625 -0.390625 C34.61772354 -0.41127014 35.54404083 -0.43191528 36.49842834 -0.45318604 C42.51120596 -0.45524946 46.11807915 0.40266601 51 4 C51.9375 6.75 51.9375 6.75 52 9 C52.66 9 53.32 9 54 9 C54.54192162 13.67945018 54.96091316 18.05575238 52.828125 22.37109375 C48.26106474 28.12341489 42.91036109 30.09369349 36 32 C34.74703125 32.37125 33.4940625 32.7425 32.203125 33.125 C26.02010132 34.89896792 20.49238299 36.2330599 14 36 C14 36.66 14 37.32 14 38 C12.96359375 38.19335938 11.9271875 38.38671875 10.859375 38.5859375 C9.48952391 38.84864867 8.11973548 39.11168671 6.75 39.375 C6.06808594 39.50132812 5.38617187 39.62765625 4.68359375 39.7578125 C1.12846405 40.44812895 -1.79217012 41.36769718 -5 43 C-6.32 43 -7.64 43 -9 43 C-9.07436755 38.3918813 -9.12870394 33.78411486 -9.16479492 29.17553711 C-9.17984622 27.60906893 -9.20029207 26.04264264 -9.22631836 24.47631836 C-9.26286433 22.21978394 -9.27976261 19.96380847 -9.29296875 17.70703125 C-9.30845261 17.01100296 -9.32393646 16.31497467 -9.33988953 15.59785461 C-9.34139852 11.20053222 -8.65533529 8.51428413 -6 5 C-2.5862069 2 -2.5862069 2 0 2 C0 1.34 0 0.68 0 0 Z " fill="#FAFAF9" transform="translate(1093,801)"/>
<path d="M0 0 C8.91 0 17.82 0 27 0 C26.01 1.485 26.01 1.485 25 3 C22.66162109 3.34057617 22.66162109 3.34057617 19.7734375 3.29296875 C18.84450684 3.28547607 17.91557617 3.2779834 16.95849609 3.27026367 C15.77594238 3.24295166 14.59338867 3.21563965 13.375 3.1875 C7.744375 3.0946875 7.744375 3.0946875 2 3 C1.67 14.22 1.34 25.44 1 37 C0.67 37 0.34 37 0 37 C0 24.79 0 12.58 0 0 Z " fill="#434445" transform="translate(2126,755)"/>
<path d="M0 0 C0.66 0.33 1.32 0.66 2 1 C-2.29 5.29 -6.58 9.58 -11 14 C-11.66 13.67 -12.32 13.34 -13 13 C-11.39979779 11.20465118 -9.79509897 9.41370539 -8.1875 7.625 C-7.73568359 7.11710938 -7.28386719 6.60921875 -6.81835938 6.0859375 C-4.64829248 3.67827204 -2.71407209 1.80938139 0 0 Z " fill="#2A2A2A" transform="translate(1057,766)"/>
</svg>
